<svg width="287" height="201" viewBox="0 0 287 201" fill="none" xmlns="http://www.w3.org/2000/svg">
<path d="M34.6675 63.36C33.2367 65.3755 32.1307 66.3892 30.0544 68.1577C26.208 66.9146 23.83 66.9053 19.5364 67.0505C16.5523 67.0571 15.2534 66.8186 13.6316 65.9434C10.6054 63.8663 9.68696 62.6363 8.46486 60.4076C7.85945 58.3223 7.76882 57.1504 8.09581 55.0563C9.01844 53.5801 13.1207 49.8865 17.1376 48.7824C22.286 48.3595 25.2579 48.171 31.8996 48.5979C32.6658 48.8265 33.1131 49.0979 33.0068 50.0741C32.9796 55.3573 32.8746 57.7659 32.2687 62.4374C32.1565 62.9894 32.2138 63.1513 32.4532 63.1755C33.3849 63.1533 33.8727 63.1912 34.6675 63.36Z" fill="url(#paint0_linear_99_707)"/>
<path fill-rule="evenodd" clip-rule="evenodd" d="M103.299 78.5696L117.507 64.0659L43.7093 65.0207C50.3542 48.4959 55.094 39.4122 66.2215 23.6869C67.129 22.1436 68.0377 21.5675 71.2037 21.6571C89.1202 19.579 103.141 18.6588 143.446 17.9682C150.471 18.0886 156.697 18.2159 162.285 18.3551L169.965 10.5156C162.232 10.2389 153.735 10.0313 143.446 9.84909C114.389 10.3636 99.6292 11.0807 76.0013 12.9844C68.7432 15.2693 64.0363 19.3079 54.5963 31.068C45.7347 43.2832 42.1325 50.2466 36.8235 60.5096C36.0829 61.9413 35.309 63.4373 34.483 65.0207C27.2612 71.2981 23.9364 75.0686 18.0602 81.8126C13.0476 87.5323 8.60822 94.3624 7.98032 96.6472C7.65175 97.8428 8.05819 100.828 9.57201 105.247C9.48849 99.2351 10.0459 95.9851 12.5244 90.4853C13.945 88.0344 14.8033 86.6605 16.7685 84.2114C17.4892 83.1517 17.8932 83.1915 18.6138 84.2114C23.4533 88.96 27.4346 91.3997 36.1437 95.4675L65.2988 107.093C67.0823 107.749 67.6687 108.199 66.2215 109.491L56.7685 117.211H94.7966L94.0849 115.212C93.9781 112.983 94.3991 112.053 97.9599 112.259L112.057 112.087L139.679 72.5507L103.299 78.5696Z" fill="url(#paint1_linear_99_707)"/>
<path d="M252.224 63.3599C253.654 65.3754 254.76 66.3892 256.837 68.1576C260.683 66.9145 263.061 66.9053 267.355 67.0504C270.339 67.057 271.638 66.8185 273.26 65.9433C276.286 63.8662 277.204 62.6362 278.426 60.4075C279.032 58.3223 279.122 57.1504 278.795 55.0563C277.873 53.5801 273.77 49.8865 269.754 48.7824C264.605 48.3594 261.633 48.1709 254.991 48.5979C254.225 48.8264 253.778 49.0978 253.884 50.0741C253.911 55.3573 254.017 57.7658 254.622 62.4373C254.735 62.9893 254.677 63.1513 254.438 63.1754C253.506 63.1532 253.018 63.1912 252.224 63.3599Z" fill="url(#paint2_linear_99_707)"/>
<path fill-rule="evenodd" clip-rule="evenodd" d="M116.962 112.028L168.99 64.0607L243.182 65.0207C236.537 48.4958 231.797 39.4121 220.67 23.6869C219.762 22.1436 218.853 21.5674 215.687 21.6571C201.819 20.0485 190.285 19.1336 167.088 18.4821L171.922 10.5877C185.154 11.0898 196.341 11.8121 210.89 12.9844C218.148 15.2692 222.855 19.3078 232.295 31.0679C241.156 43.2825 244.758 50.2463 250.067 60.5085L250.067 60.509L250.068 60.5095C250.808 61.9413 251.582 63.4373 252.408 65.0207C259.63 71.298 262.955 75.0686 268.831 81.8125C273.764 87.4416 276.743 91.909 278.811 96.4286C278.986 100.163 278.422 102.003 277.319 105.247C277.403 99.2351 276.845 95.9851 274.367 90.4852C272.946 88.0344 272.088 86.6604 270.123 84.2114C269.402 83.1516 268.998 83.1914 268.277 84.2114C263.438 88.96 259.457 91.3996 250.747 95.4674L221.592 107.093C219.809 107.749 219.222 108.199 220.67 109.491L230.123 117.211H189.064L190.038 114.474C190.145 112.245 189.724 111.314 186.163 111.521L143.353 111.706L116.962 112.028Z" fill="url(#paint3_linear_99_707)"/>
<g filter="url(#filter0_d_99_707)">
<path d="M101.147 79.6698L178.382 1L141.724 57.5692L181.963 53.1526L101.147 127.254L139.266 73.3843L101.147 79.6698Z" fill="url(#paint4_linear_99_707)"/>
</g>
<path d="M259.948 192.707C244.991 192.707 232.883 179.075 232.883 162.235C232.883 145.475 244.991 131.843 259.948 131.843C274.834 131.843 286.941 145.475 286.941 162.315C286.941 179.075 274.834 192.707 259.948 192.707ZM259.948 141.546C249.763 141.546 241.501 150.848 241.501 162.235C241.501 173.702 249.763 183.004 259.948 183.004C270.062 183.004 278.324 173.702 278.324 162.235C278.324 150.848 270.062 141.546 259.948 141.546Z" fill="url(#paint5_linear_99_707)"/>
<path d="M223.567 131.843H190.741C188.407 131.843 186.496 134.008 186.496 136.654C186.496 139.381 188.407 141.546 190.741 141.546H202.838V187.816C202.838 190.542 204.749 192.707 207.154 192.707C209.488 192.707 211.399 190.542 211.399 187.816V141.546H223.567C225.901 141.546 227.811 139.381 227.811 136.654C227.811 134.008 225.901 131.843 223.567 131.843Z" fill="url(#paint6_linear_99_707)"/>
<path d="M161.371 192.707C151.697 192.707 141.388 185.25 141.388 171.537V136.735C141.388 134.008 143.294 131.843 145.695 131.843C148.096 131.843 150.073 134.008 150.073 136.735V171.537C150.073 178.915 155.792 182.764 161.371 182.764C167.02 182.764 172.739 178.915 172.739 171.537V136.735C172.739 134.008 174.716 131.843 177.117 131.843C179.518 131.843 181.424 134.008 181.424 136.735V171.537C181.424 185.25 171.115 192.707 161.371 192.707Z" fill="url(#paint7_linear_99_707)"/>
<path d="M135.862 186.671L113.719 135.532C112.945 133.911 111.539 132.857 109.923 132.857H109.852C108.235 132.938 106.83 133.992 106.127 135.694L85.6004 186.833C84.6163 189.264 85.5301 192.101 87.639 193.235C88.2013 193.56 88.7637 193.722 89.3964 193.722C90.9429 193.722 92.4894 192.668 93.1923 190.885L98.2536 178.323C98.3942 178.404 98.5347 178.404 98.7456 178.404H122.787H122.857L128.34 191.047C129.394 193.397 131.925 194.37 133.964 193.154C136.072 192.02 136.916 189.102 135.862 186.671ZM102.12 168.679L110.063 148.904L118.639 168.679H102.12Z" fill="url(#paint8_linear_99_707)"/>
<path fill-rule="evenodd" clip-rule="evenodd" d="M38.4749 200.976C51.8078 201.502 67.312 193.174 69.5302 186.443L67.006 186.825H48.6482C46.8018 187.027 46.2386 186.624 46.3535 184.684V176.499H29.6785C22.0294 176.499 21.341 169.156 29.6785 169.156H46.43V156.918H29.6785C21.3006 156.903 21.7234 148.886 29.6785 148.886H46.43L46.583 143.685C46.5426 142.277 46.8463 141.751 48.9542 142.078H67.006L69.8362 142.537C63.8699 131.523 50.0651 123.704 38.4749 124.179C17.2258 124.179 0 141.371 0 162.578C0 183.785 17.2258 200.976 38.4749 200.976Z" fill="url(#paint9_linear_99_707)"/>
<defs>
<filter id="filter0_d_99_707" x="97.1468" y="0" width="88.8162" height="134.254" filterUnits="userSpaceOnUse" color-interpolation-filters="sRGB">
<feFlood flood-opacity="0" result="BackgroundImageFix"/>
<feColorMatrix in="SourceAlpha" type="matrix" values="0 0 0 0 0 0 0 0 0 0 0 0 0 0 0 0 0 0 127 0" result="hardAlpha"/>
<feOffset dy="3"/>
<feGaussianBlur stdDeviation="2"/>
<feComposite in2="hardAlpha" operator="out"/>
<feColorMatrix type="matrix" values="0 0 0 0 0 0 0 0 0 0 0 0 0 0 0 0 0 0 0.45 0"/>
<feBlend mode="normal" in2="BackgroundImageFix" result="effect1_dropShadow_99_707"/>
<feBlend mode="normal" in="SourceGraphic" in2="effect1_dropShadow_99_707" result="shape"/>
</filter>
<linearGradient id="paint0_linear_99_707" x1="115.972" y1="9.84738" x2="114.059" y2="119.363" gradientUnits="userSpaceOnUse">
<stop offset="0.490608" stop-color="#666666"/>
<stop offset="1" stop-color="#222222"/>
</linearGradient>
<linearGradient id="paint1_linear_99_707" x1="115.972" y1="9.84738" x2="114.059" y2="119.363" gradientUnits="userSpaceOnUse">
<stop offset="0.490608" stop-color="#666666"/>
<stop offset="1" stop-color="#222222"/>
</linearGradient>
<linearGradient id="paint2_linear_99_707" x1="188.903" y1="8.41262" x2="188.425" y2="119.363" gradientUnits="userSpaceOnUse">
<stop offset="0.502596" stop-color="#72FF13"/>
<stop offset="1" stop-color="#078513"/>
</linearGradient>
<linearGradient id="paint3_linear_99_707" x1="188.903" y1="8.41262" x2="188.425" y2="119.363" gradientUnits="userSpaceOnUse">
<stop offset="0.502596" stop-color="#72FF13"/>
<stop offset="1" stop-color="#078513"/>
</linearGradient>
<linearGradient id="paint4_linear_99_707" x1="139.273" y1="1.04839" x2="145.183" y2="126.909" gradientUnits="userSpaceOnUse">
<stop offset="0.333333" stop-color="#FFFF33"/>
<stop offset="1" stop-color="#AAAA33"/>
</linearGradient>
<linearGradient id="paint5_linear_99_707" x1="232.883" y1="131.843" x2="267.804" y2="202.205" gradientUnits="userSpaceOnUse">
<stop stop-color="#666666"/>
<stop offset="1" stop-color="#222222"/>
</linearGradient>
<linearGradient id="paint6_linear_99_707" x1="186.496" y1="131.843" x2="226.552" y2="193.525" gradientUnits="userSpaceOnUse">
<stop stop-color="#666666"/>
<stop offset="1" stop-color="#222222"/>
</linearGradient>
<linearGradient id="paint7_linear_99_707" x1="141.388" y1="131.843" x2="181.942" y2="192.361" gradientUnits="userSpaceOnUse">
<stop stop-color="#666666"/>
<stop offset="1" stop-color="#222222"/>
</linearGradient>
<linearGradient id="paint8_linear_99_707" x1="85.2045" y1="132.857" x2="121.293" y2="201.607" gradientUnits="userSpaceOnUse">
<stop stop-color="#666666"/>
<stop offset="1" stop-color="#222222"/>
</linearGradient>
<linearGradient id="paint9_linear_99_707" x1="12.8263" y1="124.188" x2="90.5935" y2="165.001" gradientUnits="userSpaceOnUse">
<stop stop-color="#72FF13"/>
<stop offset="1" stop-color="#078513"/>
</linearGradient>
</defs>
</svg>
